<mxfile host="Electron" modified="2024-03-09T20:06:20.195Z" agent="Mozilla/5.0 (Windows NT 10.0; Win64; x64) AppleWebKit/537.36 (KHTML, like Gecko) draw.io/23.1.5 Chrome/120.0.6099.109 Electron/28.1.0 Safari/537.36" etag="5Ef88gEfX2hnVp3oYpIX" version="23.1.5" type="device">
  <diagram id="C5RBs43oDa-KdzZeNtuy" name="Page-1">
    <mxGraphModel dx="1969" dy="993" grid="1" gridSize="10" guides="1" tooltips="1" connect="1" arrows="1" fold="1" page="1" pageScale="1" pageWidth="827" pageHeight="1169" math="0" shadow="0">
      <root>
        <mxCell id="WIyWlLk6GJQsqaUBKTNV-0" />
        <mxCell id="WIyWlLk6GJQsqaUBKTNV-1" parent="WIyWlLk6GJQsqaUBKTNV-0" />
        <mxCell id="fqRmJWQtiJOdLbfQ_6kI-15" style="edgeStyle=orthogonalEdgeStyle;rounded=0;orthogonalLoop=1;jettySize=auto;html=1;exitX=0;exitY=0.25;exitDx=0;exitDy=0;entryX=0.5;entryY=1;entryDx=0;entryDy=0;" parent="WIyWlLk6GJQsqaUBKTNV-1" source="fqRmJWQtiJOdLbfQ_6kI-0" target="fqRmJWQtiJOdLbfQ_6kI-10" edge="1">
          <mxGeometry relative="1" as="geometry" />
        </mxCell>
        <mxCell id="fqRmJWQtiJOdLbfQ_6kI-0" value="ITI Branches" style="whiteSpace=wrap;html=1;align=center;" parent="WIyWlLk6GJQsqaUBKTNV-1" vertex="1">
          <mxGeometry x="130" y="280" width="90" height="40" as="geometry" />
        </mxCell>
        <mxCell id="fqRmJWQtiJOdLbfQ_6kI-41" style="edgeStyle=orthogonalEdgeStyle;rounded=0;orthogonalLoop=1;jettySize=auto;html=1;exitX=1;exitY=0.5;exitDx=0;exitDy=0;entryX=0.5;entryY=1;entryDx=0;entryDy=0;" parent="WIyWlLk6GJQsqaUBKTNV-1" source="fqRmJWQtiJOdLbfQ_6kI-2" target="fqRmJWQtiJOdLbfQ_6kI-35" edge="1">
          <mxGeometry relative="1" as="geometry" />
        </mxCell>
        <mxCell id="fqRmJWQtiJOdLbfQ_6kI-2" value="Instructors" style="whiteSpace=wrap;html=1;align=center;" parent="WIyWlLk6GJQsqaUBKTNV-1" vertex="1">
          <mxGeometry x="800" y="280" width="75" height="40" as="geometry" />
        </mxCell>
        <mxCell id="yrRRdTn7mloh2SaLwdPU-28" style="edgeStyle=orthogonalEdgeStyle;rounded=0;orthogonalLoop=1;jettySize=auto;html=1;exitX=0;exitY=1;exitDx=0;exitDy=0;entryX=0.5;entryY=0;entryDx=0;entryDy=0;" parent="WIyWlLk6GJQsqaUBKTNV-1" source="fqRmJWQtiJOdLbfQ_6kI-3" target="yrRRdTn7mloh2SaLwdPU-26" edge="1">
          <mxGeometry relative="1" as="geometry" />
        </mxCell>
        <mxCell id="fqRmJWQtiJOdLbfQ_6kI-3" value="Students" style="whiteSpace=wrap;html=1;align=center;" parent="WIyWlLk6GJQsqaUBKTNV-1" vertex="1">
          <mxGeometry x="350" y="530" width="100" height="30" as="geometry" />
        </mxCell>
        <mxCell id="fqRmJWQtiJOdLbfQ_6kI-19" style="edgeStyle=orthogonalEdgeStyle;rounded=0;orthogonalLoop=1;jettySize=auto;html=1;exitX=0.5;exitY=0;exitDx=0;exitDy=0;entryX=0.5;entryY=1;entryDx=0;entryDy=0;" parent="WIyWlLk6GJQsqaUBKTNV-1" source="fqRmJWQtiJOdLbfQ_6kI-4" target="fqRmJWQtiJOdLbfQ_6kI-7" edge="1">
          <mxGeometry relative="1" as="geometry" />
        </mxCell>
        <mxCell id="fqRmJWQtiJOdLbfQ_6kI-4" value="Departments" style="whiteSpace=wrap;html=1;align=center;" parent="WIyWlLk6GJQsqaUBKTNV-1" vertex="1">
          <mxGeometry x="460" y="280" width="100" height="40" as="geometry" />
        </mxCell>
        <mxCell id="yrRRdTn7mloh2SaLwdPU-29" style="edgeStyle=orthogonalEdgeStyle;rounded=0;orthogonalLoop=1;jettySize=auto;html=1;exitX=0.5;exitY=1;exitDx=0;exitDy=0;entryX=0.5;entryY=0;entryDx=0;entryDy=0;" parent="WIyWlLk6GJQsqaUBKTNV-1" source="fqRmJWQtiJOdLbfQ_6kI-5" target="fqRmJWQtiJOdLbfQ_6kI-0" edge="1">
          <mxGeometry relative="1" as="geometry" />
        </mxCell>
        <mxCell id="fqRmJWQtiJOdLbfQ_6kI-5" value="BranchID" style="ellipse;whiteSpace=wrap;html=1;align=center;fontStyle=4;" parent="WIyWlLk6GJQsqaUBKTNV-1" vertex="1">
          <mxGeometry x="150" y="210" width="100" height="40" as="geometry" />
        </mxCell>
        <mxCell id="fqRmJWQtiJOdLbfQ_6kI-7" value="Department Name" style="ellipse;whiteSpace=wrap;html=1;align=center;" parent="WIyWlLk6GJQsqaUBKTNV-1" vertex="1">
          <mxGeometry x="465" y="210" width="90" height="40" as="geometry" />
        </mxCell>
        <mxCell id="fqRmJWQtiJOdLbfQ_6kI-10" value="Branch Name" style="ellipse;whiteSpace=wrap;html=1;align=center;" parent="WIyWlLk6GJQsqaUBKTNV-1" vertex="1">
          <mxGeometry x="40" y="210" width="100" height="40" as="geometry" />
        </mxCell>
        <mxCell id="fqRmJWQtiJOdLbfQ_6kI-24" value="" style="edgeStyle=orthogonalEdgeStyle;rounded=0;orthogonalLoop=1;jettySize=auto;html=1;" parent="WIyWlLk6GJQsqaUBKTNV-1" source="fqRmJWQtiJOdLbfQ_6kI-22" target="fqRmJWQtiJOdLbfQ_6kI-4" edge="1">
          <mxGeometry relative="1" as="geometry">
            <Array as="points">
              <mxPoint x="415" y="280" />
            </Array>
          </mxGeometry>
        </mxCell>
        <mxCell id="fqRmJWQtiJOdLbfQ_6kI-22" value="Department ID" style="ellipse;whiteSpace=wrap;html=1;align=center;fontStyle=4;" parent="WIyWlLk6GJQsqaUBKTNV-1" vertex="1">
          <mxGeometry x="360" y="210" width="100" height="40" as="geometry" />
        </mxCell>
        <mxCell id="fqRmJWQtiJOdLbfQ_6kI-33" value="" style="edgeStyle=entityRelationEdgeStyle;fontSize=12;html=1;endArrow=ERoneToMany;startArrow=ERzeroToMany;rounded=0;entryX=0;entryY=0.5;entryDx=0;entryDy=0;exitX=1;exitY=0.5;exitDx=0;exitDy=0;" parent="WIyWlLk6GJQsqaUBKTNV-1" source="fqRmJWQtiJOdLbfQ_6kI-31" target="fqRmJWQtiJOdLbfQ_6kI-4" edge="1">
          <mxGeometry width="100" height="100" relative="1" as="geometry">
            <mxPoint x="230" y="340" as="sourcePoint" />
            <mxPoint x="330" y="240" as="targetPoint" />
            <Array as="points">
              <mxPoint x="240" y="290" />
              <mxPoint x="260" y="280" />
              <mxPoint x="330" y="270" />
              <mxPoint x="280" y="260" />
            </Array>
          </mxGeometry>
        </mxCell>
        <mxCell id="fqRmJWQtiJOdLbfQ_6kI-34" value="" style="edgeStyle=entityRelationEdgeStyle;fontSize=12;html=1;endArrow=ERoneToMany;startArrow=ERzeroToMany;rounded=0;entryX=0;entryY=0.5;entryDx=0;entryDy=0;exitX=1;exitY=0.5;exitDx=0;exitDy=0;" parent="WIyWlLk6GJQsqaUBKTNV-1" source="fqRmJWQtiJOdLbfQ_6kI-0" target="fqRmJWQtiJOdLbfQ_6kI-31" edge="1">
          <mxGeometry width="100" height="100" relative="1" as="geometry">
            <mxPoint x="220" y="300" as="sourcePoint" />
            <mxPoint x="460" y="300" as="targetPoint" />
            <Array as="points" />
          </mxGeometry>
        </mxCell>
        <mxCell id="fqRmJWQtiJOdLbfQ_6kI-31" value="has" style="shape=rhombus;perimeter=rhombusPerimeter;whiteSpace=wrap;html=1;align=center;" parent="WIyWlLk6GJQsqaUBKTNV-1" vertex="1">
          <mxGeometry x="280" y="271.25" width="100" height="55" as="geometry" />
        </mxCell>
        <mxCell id="fqRmJWQtiJOdLbfQ_6kI-35" value="Instructor_ID" style="ellipse;whiteSpace=wrap;html=1;align=center;fontStyle=4;" parent="WIyWlLk6GJQsqaUBKTNV-1" vertex="1">
          <mxGeometry x="878.75" y="210" width="100" height="40" as="geometry" />
        </mxCell>
        <mxCell id="fqRmJWQtiJOdLbfQ_6kI-39" value="Instructor Name" style="ellipse;whiteSpace=wrap;html=1;align=center;fontStyle=1" parent="WIyWlLk6GJQsqaUBKTNV-1" vertex="1">
          <mxGeometry x="775" y="210" width="100" height="40" as="geometry" />
        </mxCell>
        <mxCell id="fqRmJWQtiJOdLbfQ_6kI-40" style="edgeStyle=orthogonalEdgeStyle;rounded=0;orthogonalLoop=1;jettySize=auto;html=1;exitX=0.5;exitY=0;exitDx=0;exitDy=0;entryX=0.481;entryY=1.122;entryDx=0;entryDy=0;entryPerimeter=0;" parent="WIyWlLk6GJQsqaUBKTNV-1" source="fqRmJWQtiJOdLbfQ_6kI-2" target="fqRmJWQtiJOdLbfQ_6kI-39" edge="1">
          <mxGeometry relative="1" as="geometry" />
        </mxCell>
        <mxCell id="fqRmJWQtiJOdLbfQ_6kI-114" style="edgeStyle=orthogonalEdgeStyle;rounded=0;orthogonalLoop=1;jettySize=auto;html=1;exitX=1;exitY=0.25;exitDx=0;exitDy=0;entryX=0;entryY=0.5;entryDx=0;entryDy=0;" parent="WIyWlLk6GJQsqaUBKTNV-1" source="fqRmJWQtiJOdLbfQ_6kI-48" target="fqRmJWQtiJOdLbfQ_6kI-49" edge="1">
          <mxGeometry relative="1" as="geometry" />
        </mxCell>
        <mxCell id="yrRRdTn7mloh2SaLwdPU-23" style="edgeStyle=orthogonalEdgeStyle;rounded=0;orthogonalLoop=1;jettySize=auto;html=1;exitX=1;exitY=0;exitDx=0;exitDy=0;entryX=0;entryY=0.5;entryDx=0;entryDy=0;" parent="WIyWlLk6GJQsqaUBKTNV-1" source="fqRmJWQtiJOdLbfQ_6kI-48" target="yrRRdTn7mloh2SaLwdPU-22" edge="1">
          <mxGeometry relative="1" as="geometry" />
        </mxCell>
        <mxCell id="yrRRdTn7mloh2SaLwdPU-65" style="edgeStyle=orthogonalEdgeStyle;rounded=0;orthogonalLoop=1;jettySize=auto;html=1;exitX=0.5;exitY=0;exitDx=0;exitDy=0;entryX=0;entryY=0.5;entryDx=0;entryDy=0;" parent="WIyWlLk6GJQsqaUBKTNV-1" source="fqRmJWQtiJOdLbfQ_6kI-48" target="yrRRdTn7mloh2SaLwdPU-64" edge="1">
          <mxGeometry relative="1" as="geometry" />
        </mxCell>
        <mxCell id="fqRmJWQtiJOdLbfQ_6kI-48" value="Courses" style="whiteSpace=wrap;html=1;align=center;" parent="WIyWlLk6GJQsqaUBKTNV-1" vertex="1">
          <mxGeometry x="796.25" y="530" width="82.5" height="30" as="geometry" />
        </mxCell>
        <mxCell id="fqRmJWQtiJOdLbfQ_6kI-49" value="Course_ID" style="ellipse;whiteSpace=wrap;html=1;align=center;fontStyle=4;" parent="WIyWlLk6GJQsqaUBKTNV-1" vertex="1">
          <mxGeometry x="970.63" y="520" width="100" height="30" as="geometry" />
        </mxCell>
        <mxCell id="fqRmJWQtiJOdLbfQ_6kI-52" value="Course Name" style="ellipse;whiteSpace=wrap;html=1;align=center;" parent="WIyWlLk6GJQsqaUBKTNV-1" vertex="1">
          <mxGeometry x="972.5" y="550" width="96.25" height="35" as="geometry" />
        </mxCell>
        <mxCell id="fqRmJWQtiJOdLbfQ_6kI-56" style="edgeStyle=orthogonalEdgeStyle;rounded=0;orthogonalLoop=1;jettySize=auto;html=1;exitX=1;exitY=0.5;exitDx=0;exitDy=0;entryX=0.002;entryY=0.633;entryDx=0;entryDy=0;entryPerimeter=0;" parent="WIyWlLk6GJQsqaUBKTNV-1" source="fqRmJWQtiJOdLbfQ_6kI-48" target="fqRmJWQtiJOdLbfQ_6kI-52" edge="1">
          <mxGeometry relative="1" as="geometry">
            <Array as="points">
              <mxPoint x="879" y="550" />
              <mxPoint x="904" y="550" />
              <mxPoint x="904" y="580" />
              <mxPoint x="958" y="580" />
            </Array>
          </mxGeometry>
        </mxCell>
        <mxCell id="fqRmJWQtiJOdLbfQ_6kI-59" value="" style="edgeStyle=entityRelationEdgeStyle;fontSize=12;html=1;endArrow=ERoneToMany;startArrow=ERzeroToOne;rounded=0;exitX=0.5;exitY=0;exitDx=0;exitDy=0;entryX=0.5;entryY=1;entryDx=0;entryDy=0;" parent="WIyWlLk6GJQsqaUBKTNV-1" source="fqRmJWQtiJOdLbfQ_6kI-55" target="fqRmJWQtiJOdLbfQ_6kI-2" edge="1">
          <mxGeometry width="100" height="100" relative="1" as="geometry">
            <mxPoint x="775" y="470" as="sourcePoint" />
            <mxPoint x="870" y="370" as="targetPoint" />
            <Array as="points">
              <mxPoint x="830" y="360" />
            </Array>
          </mxGeometry>
        </mxCell>
        <mxCell id="fqRmJWQtiJOdLbfQ_6kI-60" value="" style="edgeStyle=entityRelationEdgeStyle;fontSize=12;html=1;endArrow=ERoneToMany;startArrow=ERzeroToOne;rounded=0;exitX=0.5;exitY=0;exitDx=0;exitDy=0;entryX=0.5;entryY=1;entryDx=0;entryDy=0;" parent="WIyWlLk6GJQsqaUBKTNV-1" source="fqRmJWQtiJOdLbfQ_6kI-48" target="fqRmJWQtiJOdLbfQ_6kI-55" edge="1">
          <mxGeometry width="100" height="100" relative="1" as="geometry">
            <mxPoint x="842.6274999999997" y="515.9200000000001" as="sourcePoint" />
            <mxPoint x="852.3799999999998" y="450" as="targetPoint" />
            <Array as="points">
              <mxPoint x="1089.88" y="410" />
            </Array>
          </mxGeometry>
        </mxCell>
        <mxCell id="fqRmJWQtiJOdLbfQ_6kI-55" value="Teach&lt;br&gt;1-M (May-Must)" style="shape=rhombus;perimeter=rhombusPerimeter;whiteSpace=wrap;html=1;align=center;" parent="WIyWlLk6GJQsqaUBKTNV-1" vertex="1">
          <mxGeometry x="777.5" y="390" width="120" height="60" as="geometry" />
        </mxCell>
        <mxCell id="fqRmJWQtiJOdLbfQ_6kI-62" style="edgeStyle=orthogonalEdgeStyle;rounded=0;orthogonalLoop=1;jettySize=auto;html=1;exitX=0.5;exitY=0;exitDx=0;exitDy=0;entryX=0.5;entryY=1;entryDx=0;entryDy=0;" parent="WIyWlLk6GJQsqaUBKTNV-1" source="fqRmJWQtiJOdLbfQ_6kI-61" target="fqRmJWQtiJOdLbfQ_6kI-3" edge="1">
          <mxGeometry relative="1" as="geometry" />
        </mxCell>
        <mxCell id="fqRmJWQtiJOdLbfQ_6kI-61" value="Student_ID" style="ellipse;whiteSpace=wrap;html=1;align=center;fontStyle=4;" parent="WIyWlLk6GJQsqaUBKTNV-1" vertex="1">
          <mxGeometry x="374" y="608.13" width="76" height="28.75" as="geometry" />
        </mxCell>
        <mxCell id="fqRmJWQtiJOdLbfQ_6kI-65" style="edgeStyle=orthogonalEdgeStyle;rounded=0;orthogonalLoop=1;jettySize=auto;html=1;exitX=0.5;exitY=0;exitDx=0;exitDy=0;entryX=0;entryY=0.5;entryDx=0;entryDy=0;" parent="WIyWlLk6GJQsqaUBKTNV-1" source="fqRmJWQtiJOdLbfQ_6kI-63" target="fqRmJWQtiJOdLbfQ_6kI-3" edge="1">
          <mxGeometry relative="1" as="geometry" />
        </mxCell>
        <mxCell id="fqRmJWQtiJOdLbfQ_6kI-63" value="Student Name" style="ellipse;whiteSpace=wrap;html=1;align=center;" parent="WIyWlLk6GJQsqaUBKTNV-1" vertex="1">
          <mxGeometry x="280" y="608.13" width="80" height="27.5" as="geometry" />
        </mxCell>
        <mxCell id="fqRmJWQtiJOdLbfQ_6kI-68" value="Student Age" style="ellipse;whiteSpace=wrap;html=1;align=center;dashed=1;" parent="WIyWlLk6GJQsqaUBKTNV-1" vertex="1">
          <mxGeometry x="90" y="607.5" width="80" height="25" as="geometry" />
        </mxCell>
        <mxCell id="fqRmJWQtiJOdLbfQ_6kI-75" value="M Dept-M Inst&lt;br&gt;May-MUst" style="ellipse;shape=cloud;whiteSpace=wrap;html=1;align=center;" parent="WIyWlLk6GJQsqaUBKTNV-1" vertex="1">
          <mxGeometry x="622.5" y="202.5" width="105" height="81.25" as="geometry" />
        </mxCell>
        <mxCell id="fqRmJWQtiJOdLbfQ_6kI-76" value="" style="edgeStyle=entityRelationEdgeStyle;fontSize=12;html=1;endArrow=ERoneToMany;startArrow=ERzeroToMany;rounded=0;entryX=1;entryY=0.5;entryDx=0;entryDy=0;exitX=0;exitY=0.5;exitDx=0;exitDy=0;" parent="WIyWlLk6GJQsqaUBKTNV-1" source="fqRmJWQtiJOdLbfQ_6kI-70" target="fqRmJWQtiJOdLbfQ_6kI-3" edge="1">
          <mxGeometry width="100" height="100" relative="1" as="geometry">
            <mxPoint x="760" y="540" as="sourcePoint" />
            <mxPoint x="740" y="470" as="targetPoint" />
          </mxGeometry>
        </mxCell>
        <mxCell id="fqRmJWQtiJOdLbfQ_6kI-77" value="M-M&lt;br&gt;Must-May" style="ellipse;shape=cloud;whiteSpace=wrap;html=1;align=center;" parent="WIyWlLk6GJQsqaUBKTNV-1" vertex="1">
          <mxGeometry x="587.63" y="456.25" width="85" height="50" as="geometry" />
        </mxCell>
        <mxCell id="fqRmJWQtiJOdLbfQ_6kI-79" value="" style="edgeStyle=entityRelationEdgeStyle;fontSize=12;html=1;endArrow=ERzeroToMany;startArrow=ERmandOne;rounded=0;entryX=0.5;entryY=0;entryDx=0;entryDy=0;exitX=0.5;exitY=1;exitDx=0;exitDy=0;" parent="WIyWlLk6GJQsqaUBKTNV-1" source="fqRmJWQtiJOdLbfQ_6kI-78" target="fqRmJWQtiJOdLbfQ_6kI-3" edge="1">
          <mxGeometry width="100" height="100" relative="1" as="geometry">
            <mxPoint x="460" y="362.5" as="sourcePoint" />
            <mxPoint x="534.9999999999998" y="572.5" as="targetPoint" />
          </mxGeometry>
        </mxCell>
        <mxCell id="fqRmJWQtiJOdLbfQ_6kI-80" value="" style="edgeStyle=entityRelationEdgeStyle;fontSize=12;html=1;endArrow=ERzeroToMany;startArrow=ERmandOne;rounded=0;entryX=0.5;entryY=0;entryDx=0;entryDy=0;exitX=0.5;exitY=1;exitDx=0;exitDy=0;" parent="WIyWlLk6GJQsqaUBKTNV-1" source="fqRmJWQtiJOdLbfQ_6kI-4" target="fqRmJWQtiJOdLbfQ_6kI-78" edge="1">
          <mxGeometry width="100" height="100" relative="1" as="geometry">
            <mxPoint x="510" y="320" as="sourcePoint" />
            <mxPoint x="480" y="530" as="targetPoint" />
          </mxGeometry>
        </mxCell>
        <mxCell id="fqRmJWQtiJOdLbfQ_6kI-78" value="Assigned to" style="shape=rhombus;perimeter=rhombusPerimeter;whiteSpace=wrap;html=1;align=center;direction=east;" parent="WIyWlLk6GJQsqaUBKTNV-1" vertex="1">
          <mxGeometry x="450" y="400" width="90" height="50" as="geometry" />
        </mxCell>
        <mxCell id="fqRmJWQtiJOdLbfQ_6kI-81" value="1 D--&amp;gt;M S&lt;br&gt;May-Must" style="ellipse;shape=cloud;whiteSpace=wrap;html=1;align=center;" parent="WIyWlLk6GJQsqaUBKTNV-1" vertex="1">
          <mxGeometry x="414" y="350" width="80" height="50" as="geometry" />
        </mxCell>
        <mxCell id="fqRmJWQtiJOdLbfQ_6kI-82" style="edgeStyle=orthogonalEdgeStyle;rounded=0;orthogonalLoop=1;jettySize=auto;html=1;exitX=0.75;exitY=1;exitDx=0;exitDy=0;entryX=0.55;entryY=0.036;entryDx=0;entryDy=0;entryPerimeter=0;" parent="WIyWlLk6GJQsqaUBKTNV-1" source="fqRmJWQtiJOdLbfQ_6kI-3" target="fqRmJWQtiJOdLbfQ_6kI-68" edge="1">
          <mxGeometry relative="1" as="geometry" />
        </mxCell>
        <mxCell id="fqRmJWQtiJOdLbfQ_6kI-90" style="edgeStyle=orthogonalEdgeStyle;rounded=0;orthogonalLoop=1;jettySize=auto;html=1;exitX=1;exitY=0.5;exitDx=0;exitDy=0;entryX=0;entryY=0.5;entryDx=0;entryDy=0;" parent="WIyWlLk6GJQsqaUBKTNV-1" source="fqRmJWQtiJOdLbfQ_6kI-87" target="fqRmJWQtiJOdLbfQ_6kI-88" edge="1">
          <mxGeometry relative="1" as="geometry" />
        </mxCell>
        <mxCell id="fqRmJWQtiJOdLbfQ_6kI-92" style="edgeStyle=orthogonalEdgeStyle;rounded=0;orthogonalLoop=1;jettySize=auto;html=1;exitX=1;exitY=1;exitDx=0;exitDy=0;entryX=0;entryY=0.5;entryDx=0;entryDy=0;" parent="WIyWlLk6GJQsqaUBKTNV-1" source="fqRmJWQtiJOdLbfQ_6kI-87" target="fqRmJWQtiJOdLbfQ_6kI-91" edge="1">
          <mxGeometry relative="1" as="geometry">
            <Array as="points">
              <mxPoint x="921" y="770" />
              <mxPoint x="921" y="775" />
            </Array>
          </mxGeometry>
        </mxCell>
        <mxCell id="fqRmJWQtiJOdLbfQ_6kI-94" style="edgeStyle=orthogonalEdgeStyle;rounded=0;orthogonalLoop=1;jettySize=auto;html=1;exitX=0.5;exitY=1;exitDx=0;exitDy=0;entryX=0.5;entryY=0;entryDx=0;entryDy=0;" parent="WIyWlLk6GJQsqaUBKTNV-1" source="fqRmJWQtiJOdLbfQ_6kI-87" target="fqRmJWQtiJOdLbfQ_6kI-93" edge="1">
          <mxGeometry relative="1" as="geometry">
            <Array as="points">
              <mxPoint x="842" y="790" />
              <mxPoint x="837" y="790" />
              <mxPoint x="837" y="820" />
              <mxPoint x="1020" y="820" />
              <mxPoint x="1020" y="800" />
              <mxPoint x="1032" y="800" />
            </Array>
          </mxGeometry>
        </mxCell>
        <mxCell id="yrRRdTn7mloh2SaLwdPU-13" style="edgeStyle=orthogonalEdgeStyle;rounded=0;orthogonalLoop=1;jettySize=auto;html=1;exitX=0.25;exitY=1;exitDx=0;exitDy=0;entryX=0;entryY=0.5;entryDx=0;entryDy=0;" parent="WIyWlLk6GJQsqaUBKTNV-1" source="fqRmJWQtiJOdLbfQ_6kI-87" target="fqRmJWQtiJOdLbfQ_6kI-112" edge="1">
          <mxGeometry relative="1" as="geometry" />
        </mxCell>
        <mxCell id="VparaJbnwcE0uKCTUJk4-4" style="edgeStyle=orthogonalEdgeStyle;rounded=0;orthogonalLoop=1;jettySize=auto;html=1;exitX=0.5;exitY=1;exitDx=0;exitDy=0;entryX=0.5;entryY=0;entryDx=0;entryDy=0;" parent="WIyWlLk6GJQsqaUBKTNV-1" source="fqRmJWQtiJOdLbfQ_6kI-87" target="yrRRdTn7mloh2SaLwdPU-11" edge="1">
          <mxGeometry relative="1" as="geometry" />
        </mxCell>
        <mxCell id="fqRmJWQtiJOdLbfQ_6kI-87" value="Questions" style="whiteSpace=wrap;html=1;align=center;" parent="WIyWlLk6GJQsqaUBKTNV-1" vertex="1">
          <mxGeometry x="805" y="790" width="73.75" height="40" as="geometry" />
        </mxCell>
        <mxCell id="fqRmJWQtiJOdLbfQ_6kI-88" value="Question_ID" style="ellipse;whiteSpace=wrap;html=1;align=center;fontStyle=4;" parent="WIyWlLk6GJQsqaUBKTNV-1" vertex="1">
          <mxGeometry x="998.63" y="720" width="80" height="30" as="geometry" />
        </mxCell>
        <mxCell id="fqRmJWQtiJOdLbfQ_6kI-91" value="Question_Text" style="ellipse;whiteSpace=wrap;html=1;align=center;" parent="WIyWlLk6GJQsqaUBKTNV-1" vertex="1">
          <mxGeometry x="995.63" y="760" width="90" height="30" as="geometry" />
        </mxCell>
        <mxCell id="fqRmJWQtiJOdLbfQ_6kI-93" value="Question Type" style="ellipse;whiteSpace=wrap;html=1;align=center;" parent="WIyWlLk6GJQsqaUBKTNV-1" vertex="1">
          <mxGeometry x="995.63" y="795" width="94.37" height="30" as="geometry" />
        </mxCell>
        <mxCell id="yrRRdTn7mloh2SaLwdPU-45" style="edgeStyle=orthogonalEdgeStyle;rounded=0;orthogonalLoop=1;jettySize=auto;html=1;exitX=0.5;exitY=0;exitDx=0;exitDy=0;entryX=0.5;entryY=1;entryDx=0;entryDy=0;" parent="WIyWlLk6GJQsqaUBKTNV-1" source="fqRmJWQtiJOdLbfQ_6kI-106" target="fqRmJWQtiJOdLbfQ_6kI-70" edge="1">
          <mxGeometry relative="1" as="geometry" />
        </mxCell>
        <mxCell id="fqRmJWQtiJOdLbfQ_6kI-106" value="Std_Grade" style="ellipse;whiteSpace=wrap;html=1;align=center;" parent="WIyWlLk6GJQsqaUBKTNV-1" vertex="1">
          <mxGeometry x="590.13" y="575" width="80" height="20" as="geometry" />
        </mxCell>
        <mxCell id="fqRmJWQtiJOdLbfQ_6kI-109" value="" style="edgeStyle=entityRelationEdgeStyle;fontSize=12;html=1;endArrow=ERoneToMany;startArrow=ERmandOne;rounded=0;entryX=0.5;entryY=0;entryDx=0;entryDy=0;exitX=0.5;exitY=1;exitDx=0;exitDy=0;" parent="WIyWlLk6GJQsqaUBKTNV-1" source="fqRmJWQtiJOdLbfQ_6kI-105" target="fqRmJWQtiJOdLbfQ_6kI-87" edge="1">
          <mxGeometry width="100" height="100" relative="1" as="geometry">
            <mxPoint x="780" y="690" as="sourcePoint" />
            <mxPoint x="880" y="590" as="targetPoint" />
            <Array as="points">
              <mxPoint x="838" y="760" />
              <mxPoint x="838" y="760" />
            </Array>
          </mxGeometry>
        </mxCell>
        <mxCell id="fqRmJWQtiJOdLbfQ_6kI-110" value="" style="edgeStyle=entityRelationEdgeStyle;fontSize=12;html=1;endArrow=ERoneToMany;startArrow=ERmandOne;rounded=0;entryX=0.5;entryY=0;entryDx=0;entryDy=0;exitX=0.5;exitY=1;exitDx=0;exitDy=0;" parent="WIyWlLk6GJQsqaUBKTNV-1" edge="1">
          <mxGeometry width="100" height="100" relative="1" as="geometry">
            <mxPoint x="840" y="560" as="sourcePoint" />
            <mxPoint x="840" y="625" as="targetPoint" />
            <Array as="points">
              <mxPoint x="830" y="580" />
              <mxPoint x="840" y="610" />
            </Array>
          </mxGeometry>
        </mxCell>
        <mxCell id="fqRmJWQtiJOdLbfQ_6kI-105" value="has" style="shape=rhombus;perimeter=rhombusPerimeter;whiteSpace=wrap;html=1;align=center;" parent="WIyWlLk6GJQsqaUBKTNV-1" vertex="1">
          <mxGeometry x="786.0600000000001" y="618.75" width="93.12" height="50" as="geometry" />
        </mxCell>
        <mxCell id="fqRmJWQtiJOdLbfQ_6kI-111" value="1 C - M Q&lt;br&gt;Must-Must" style="ellipse;shape=cloud;whiteSpace=wrap;html=1;align=center;" parent="WIyWlLk6GJQsqaUBKTNV-1" vertex="1">
          <mxGeometry x="884.06" y="620" width="100" height="60" as="geometry" />
        </mxCell>
        <mxCell id="fqRmJWQtiJOdLbfQ_6kI-112" value="Answer" style="ellipse;whiteSpace=wrap;html=1;align=center;" parent="WIyWlLk6GJQsqaUBKTNV-1" vertex="1">
          <mxGeometry x="1009.63" y="835" width="76" height="30" as="geometry" />
        </mxCell>
        <mxCell id="VparaJbnwcE0uKCTUJk4-0" style="edgeStyle=orthogonalEdgeStyle;rounded=0;orthogonalLoop=1;jettySize=auto;html=1;exitX=0;exitY=1;exitDx=0;exitDy=0;entryX=1;entryY=0.5;entryDx=0;entryDy=0;" parent="WIyWlLk6GJQsqaUBKTNV-1" source="yrRRdTn7mloh2SaLwdPU-3" target="yrRRdTn7mloh2SaLwdPU-14" edge="1">
          <mxGeometry relative="1" as="geometry" />
        </mxCell>
        <mxCell id="VparaJbnwcE0uKCTUJk4-1" style="edgeStyle=orthogonalEdgeStyle;rounded=0;orthogonalLoop=1;jettySize=auto;html=1;exitX=0;exitY=0.5;exitDx=0;exitDy=0;entryX=0.5;entryY=0;entryDx=0;entryDy=0;" parent="WIyWlLk6GJQsqaUBKTNV-1" source="yrRRdTn7mloh2SaLwdPU-3" target="yrRRdTn7mloh2SaLwdPU-4" edge="1">
          <mxGeometry relative="1" as="geometry" />
        </mxCell>
        <mxCell id="VparaJbnwcE0uKCTUJk4-2" style="edgeStyle=orthogonalEdgeStyle;rounded=0;orthogonalLoop=1;jettySize=auto;html=1;exitX=1;exitY=1;exitDx=0;exitDy=0;entryX=0;entryY=0.5;entryDx=0;entryDy=0;" parent="WIyWlLk6GJQsqaUBKTNV-1" source="yrRRdTn7mloh2SaLwdPU-3" target="yrRRdTn7mloh2SaLwdPU-5" edge="1">
          <mxGeometry relative="1" as="geometry" />
        </mxCell>
        <mxCell id="VparaJbnwcE0uKCTUJk4-3" style="edgeStyle=orthogonalEdgeStyle;rounded=0;orthogonalLoop=1;jettySize=auto;html=1;exitX=1;exitY=0.5;exitDx=0;exitDy=0;entryX=0.5;entryY=0;entryDx=0;entryDy=0;" parent="WIyWlLk6GJQsqaUBKTNV-1" source="yrRRdTn7mloh2SaLwdPU-3" target="yrRRdTn7mloh2SaLwdPU-6" edge="1">
          <mxGeometry relative="1" as="geometry" />
        </mxCell>
        <mxCell id="yrRRdTn7mloh2SaLwdPU-3" value="Chocies" style="shape=ext;margin=3;double=1;whiteSpace=wrap;html=1;align=center;" parent="WIyWlLk6GJQsqaUBKTNV-1" vertex="1">
          <mxGeometry x="727.5" y="1090" width="100" height="40" as="geometry" />
        </mxCell>
        <mxCell id="yrRRdTn7mloh2SaLwdPU-4" value="Choice 1" style="ellipse;whiteSpace=wrap;html=1;align=center;" parent="WIyWlLk6GJQsqaUBKTNV-1" vertex="1">
          <mxGeometry x="555" y="1130" width="80" height="30" as="geometry" />
        </mxCell>
        <mxCell id="yrRRdTn7mloh2SaLwdPU-5" value="Choice 3" style="ellipse;whiteSpace=wrap;html=1;align=center;" parent="WIyWlLk6GJQsqaUBKTNV-1" vertex="1">
          <mxGeometry x="970.63" y="1120" width="80" height="30" as="geometry" />
        </mxCell>
        <mxCell id="yrRRdTn7mloh2SaLwdPU-6" value="Choice 2" style="ellipse;whiteSpace=wrap;html=1;align=center;" parent="WIyWlLk6GJQsqaUBKTNV-1" vertex="1">
          <mxGeometry x="1060" y="1120" width="80" height="30" as="geometry" />
        </mxCell>
        <mxCell id="yrRRdTn7mloh2SaLwdPU-14" value="&lt;span style=&quot;border-bottom: 1px dotted&quot;&gt;Choice_ID&lt;/span&gt;" style="ellipse;whiteSpace=wrap;html=1;align=center;" parent="WIyWlLk6GJQsqaUBKTNV-1" vertex="1">
          <mxGeometry x="645" y="1130" width="70" height="30" as="geometry" />
        </mxCell>
        <mxCell id="yrRRdTn7mloh2SaLwdPU-17" value="May_Must&lt;br&gt;1 - 1" style="ellipse;shape=cloud;whiteSpace=wrap;html=1;align=center;" parent="WIyWlLk6GJQsqaUBKTNV-1" vertex="1">
          <mxGeometry x="688.69" y="1025" width="97.37" height="65" as="geometry" />
        </mxCell>
        <mxCell id="yrRRdTn7mloh2SaLwdPU-19" value="" style="edgeStyle=entityRelationEdgeStyle;fontSize=12;html=1;endArrow=ERzeroToOne;startArrow=ERmandOne;rounded=0;exitX=1;exitY=0.5;exitDx=0;exitDy=0;entryX=0;entryY=0.5;entryDx=0;entryDy=0;" parent="WIyWlLk6GJQsqaUBKTNV-1" source="yrRRdTn7mloh2SaLwdPU-3" target="yrRRdTn7mloh2SaLwdPU-11" edge="1">
          <mxGeometry width="100" height="100" relative="1" as="geometry">
            <mxPoint x="514" y="745" as="sourcePoint" />
            <mxPoint x="800" y="750" as="targetPoint" />
          </mxGeometry>
        </mxCell>
        <mxCell id="yrRRdTn7mloh2SaLwdPU-11" value="has" style="shape=rhombus;perimeter=rhombusPerimeter;whiteSpace=wrap;html=1;align=center;" parent="WIyWlLk6GJQsqaUBKTNV-1" vertex="1">
          <mxGeometry x="770.25" y="970" width="89.75" height="50" as="geometry" />
        </mxCell>
        <mxCell id="yrRRdTn7mloh2SaLwdPU-22" value="Topics" style="ellipse;shape=doubleEllipse;margin=3;whiteSpace=wrap;html=1;align=center;" parent="WIyWlLk6GJQsqaUBKTNV-1" vertex="1">
          <mxGeometry x="968.75" y="480" width="100" height="40" as="geometry" />
        </mxCell>
        <mxCell id="yrRRdTn7mloh2SaLwdPU-25" style="edgeStyle=orthogonalEdgeStyle;rounded=0;orthogonalLoop=1;jettySize=auto;html=1;exitX=0.5;exitY=0;exitDx=0;exitDy=0;" parent="WIyWlLk6GJQsqaUBKTNV-1" source="yrRRdTn7mloh2SaLwdPU-24" edge="1">
          <mxGeometry relative="1" as="geometry">
            <mxPoint x="420" y="560" as="targetPoint" />
            <Array as="points">
              <mxPoint x="40" y="583" />
              <mxPoint x="370" y="583" />
              <mxPoint x="370" y="560" />
            </Array>
          </mxGeometry>
        </mxCell>
        <mxCell id="yrRRdTn7mloh2SaLwdPU-24" value="Student_BD" style="ellipse;whiteSpace=wrap;html=1;align=center;" parent="WIyWlLk6GJQsqaUBKTNV-1" vertex="1">
          <mxGeometry y="605" width="80" height="30" as="geometry" />
        </mxCell>
        <mxCell id="yrRRdTn7mloh2SaLwdPU-26" value="Student_Address" style="ellipse;whiteSpace=wrap;html=1;align=center;" parent="WIyWlLk6GJQsqaUBKTNV-1" vertex="1">
          <mxGeometry x="180" y="607.5" width="90" height="30" as="geometry" />
        </mxCell>
        <mxCell id="VparaJbnwcE0uKCTUJk4-6" style="edgeStyle=orthogonalEdgeStyle;rounded=0;orthogonalLoop=1;jettySize=auto;html=1;exitX=0;exitY=1;exitDx=0;exitDy=0;" parent="WIyWlLk6GJQsqaUBKTNV-1" source="yrRRdTn7mloh2SaLwdPU-30" target="yrRRdTn7mloh2SaLwdPU-36" edge="1">
          <mxGeometry relative="1" as="geometry" />
        </mxCell>
        <mxCell id="VparaJbnwcE0uKCTUJk4-7" style="edgeStyle=orthogonalEdgeStyle;rounded=0;orthogonalLoop=1;jettySize=auto;html=1;exitX=0.5;exitY=1;exitDx=0;exitDy=0;entryX=0.5;entryY=0;entryDx=0;entryDy=0;" parent="WIyWlLk6GJQsqaUBKTNV-1" source="yrRRdTn7mloh2SaLwdPU-30" target="yrRRdTn7mloh2SaLwdPU-33" edge="1">
          <mxGeometry relative="1" as="geometry" />
        </mxCell>
        <mxCell id="yrRRdTn7mloh2SaLwdPU-30" value="Exams" style="rounded=1;arcSize=10;whiteSpace=wrap;html=1;align=center;" parent="WIyWlLk6GJQsqaUBKTNV-1" vertex="1">
          <mxGeometry x="250" y="960" width="100" height="40" as="geometry" />
        </mxCell>
        <mxCell id="yrRRdTn7mloh2SaLwdPU-33" value="Exam_ID" style="ellipse;whiteSpace=wrap;html=1;align=center;fontStyle=4;" parent="WIyWlLk6GJQsqaUBKTNV-1" vertex="1">
          <mxGeometry x="315" y="1115" width="65" height="25" as="geometry" />
        </mxCell>
        <mxCell id="yrRRdTn7mloh2SaLwdPU-36" value="Degree (out of 100)" style="ellipse;whiteSpace=wrap;html=1;align=center;" parent="WIyWlLk6GJQsqaUBKTNV-1" vertex="1">
          <mxGeometry x="220" y="1100" width="90" height="40" as="geometry" />
        </mxCell>
        <mxCell id="yrRRdTn7mloh2SaLwdPU-41" value="" style="edgeStyle=entityRelationEdgeStyle;fontSize=12;html=1;endArrow=ERoneToMany;startArrow=ERzeroToOne;rounded=0;entryX=1;entryY=0.5;entryDx=0;entryDy=0;exitX=0;exitY=1;exitDx=0;exitDy=0;" parent="WIyWlLk6GJQsqaUBKTNV-1" source="yrRRdTn7mloh2SaLwdPU-31" target="yrRRdTn7mloh2SaLwdPU-30" edge="1">
          <mxGeometry width="100" height="100" relative="1" as="geometry">
            <mxPoint x="677.5" y="750" as="sourcePoint" />
            <mxPoint x="777.5" y="650" as="targetPoint" />
            <Array as="points" />
          </mxGeometry>
        </mxCell>
        <mxCell id="yrRRdTn7mloh2SaLwdPU-42" value="" style="edgeStyle=entityRelationEdgeStyle;fontSize=12;html=1;endArrow=ERoneToMany;startArrow=ERzeroToOne;rounded=0;entryX=1;entryY=0.5;entryDx=0;entryDy=0;exitX=0;exitY=1;exitDx=0;exitDy=0;" parent="WIyWlLk6GJQsqaUBKTNV-1" source="fqRmJWQtiJOdLbfQ_6kI-48" target="yrRRdTn7mloh2SaLwdPU-31" edge="1">
          <mxGeometry width="100" height="100" relative="1" as="geometry">
            <mxPoint x="796" y="560" as="sourcePoint" />
            <mxPoint x="630" y="695" as="targetPoint" />
            <Array as="points">
              <mxPoint x="767.5" y="730" />
            </Array>
          </mxGeometry>
        </mxCell>
        <mxCell id="yrRRdTn7mloh2SaLwdPU-31" value="has" style="shape=rhombus;perimeter=rhombusPerimeter;whiteSpace=wrap;html=1;align=center;rotation=-45;" parent="WIyWlLk6GJQsqaUBKTNV-1" vertex="1">
          <mxGeometry x="688.69" y="950" width="50.25" height="30" as="geometry" />
        </mxCell>
        <mxCell id="yrRRdTn7mloh2SaLwdPU-44" value="" style="edgeStyle=entityRelationEdgeStyle;fontSize=12;html=1;endArrow=ERoneToMany;startArrow=ERzeroToMany;rounded=0;entryX=1;entryY=0.5;entryDx=0;entryDy=0;exitX=0;exitY=0.5;exitDx=0;exitDy=0;" parent="WIyWlLk6GJQsqaUBKTNV-1" source="fqRmJWQtiJOdLbfQ_6kI-48" target="fqRmJWQtiJOdLbfQ_6kI-70" edge="1">
          <mxGeometry width="100" height="100" relative="1" as="geometry">
            <mxPoint x="796" y="545" as="sourcePoint" />
            <mxPoint x="450" y="545" as="targetPoint" />
          </mxGeometry>
        </mxCell>
        <mxCell id="fqRmJWQtiJOdLbfQ_6kI-70" value="Study" style="shape=rhombus;perimeter=rhombusPerimeter;whiteSpace=wrap;html=1;align=center;" parent="WIyWlLk6GJQsqaUBKTNV-1" vertex="1">
          <mxGeometry x="580" y="506.25" width="100.25" height="52.5" as="geometry" />
        </mxCell>
        <mxCell id="yrRRdTn7mloh2SaLwdPU-47" value="M-M (May-Must)" style="ellipse;shape=cloud;whiteSpace=wrap;html=1;align=center;" parent="WIyWlLk6GJQsqaUBKTNV-1" vertex="1">
          <mxGeometry x="250" y="326.25" width="110" height="63.75" as="geometry" />
        </mxCell>
        <mxCell id="yrRRdTn7mloh2SaLwdPU-48" value="M - 1&lt;br&gt;May-Must" style="ellipse;shape=cloud;whiteSpace=wrap;html=1;align=center;rotation=-45;" parent="WIyWlLk6GJQsqaUBKTNV-1" vertex="1">
          <mxGeometry x="639.87" y="920" width="80.25" height="50" as="geometry" />
        </mxCell>
        <mxCell id="yrRRdTn7mloh2SaLwdPU-64" value="CourseWork" style="ellipse;whiteSpace=wrap;html=1;align=center;" parent="WIyWlLk6GJQsqaUBKTNV-1" vertex="1">
          <mxGeometry x="972.5" y="585" width="97.5" height="33.75" as="geometry" />
        </mxCell>
        <mxCell id="yrRRdTn7mloh2SaLwdPU-66" value="" style="edgeStyle=entityRelationEdgeStyle;fontSize=12;html=1;endArrow=ERoneToMany;startArrow=ERzeroToMany;rounded=0;entryX=0;entryY=0.5;entryDx=0;entryDy=0;exitX=1;exitY=0.5;exitDx=0;exitDy=0;" parent="WIyWlLk6GJQsqaUBKTNV-1" source="fqRmJWQtiJOdLbfQ_6kI-42" target="fqRmJWQtiJOdLbfQ_6kI-2" edge="1">
          <mxGeometry width="100" height="100" relative="1" as="geometry">
            <mxPoint x="625" y="350" as="sourcePoint" />
            <mxPoint x="725" y="250" as="targetPoint" />
          </mxGeometry>
        </mxCell>
        <mxCell id="yrRRdTn7mloh2SaLwdPU-67" value="" style="edgeStyle=entityRelationEdgeStyle;fontSize=12;html=1;endArrow=ERoneToMany;startArrow=ERzeroToMany;rounded=0;entryX=0;entryY=0.5;entryDx=0;entryDy=0;exitX=1;exitY=0.5;exitDx=0;exitDy=0;" parent="WIyWlLk6GJQsqaUBKTNV-1" source="fqRmJWQtiJOdLbfQ_6kI-4" target="fqRmJWQtiJOdLbfQ_6kI-42" edge="1">
          <mxGeometry width="100" height="100" relative="1" as="geometry">
            <mxPoint x="560" y="300" as="sourcePoint" />
            <mxPoint x="800" y="300" as="targetPoint" />
          </mxGeometry>
        </mxCell>
        <mxCell id="fqRmJWQtiJOdLbfQ_6kI-42" value="Work in" style="shape=rhombus;perimeter=rhombusPerimeter;whiteSpace=wrap;html=1;align=center;" parent="WIyWlLk6GJQsqaUBKTNV-1" vertex="1">
          <mxGeometry x="635" y="283.75" width="80" height="42.5" as="geometry" />
        </mxCell>
        <mxCell id="VparaJbnwcE0uKCTUJk4-13" value="" style="edgeStyle=entityRelationEdgeStyle;fontSize=12;html=1;endArrow=ERmany;startArrow=ERmany;rounded=0;exitX=0.75;exitY=0;exitDx=0;exitDy=0;entryX=0;entryY=0.5;entryDx=0;entryDy=0;" parent="WIyWlLk6GJQsqaUBKTNV-1" source="VparaJbnwcE0uKCTUJk4-14" target="fqRmJWQtiJOdLbfQ_6kI-87" edge="1">
          <mxGeometry width="100" height="100" relative="1" as="geometry">
            <mxPoint x="340" y="925" as="sourcePoint" />
            <mxPoint x="533.0384757729335" y="825" as="targetPoint" />
          </mxGeometry>
        </mxCell>
        <mxCell id="VparaJbnwcE0uKCTUJk4-15" value="" style="edgeStyle=entityRelationEdgeStyle;fontSize=12;html=1;endArrow=ERmany;startArrow=ERmany;rounded=0;exitX=0.75;exitY=0;exitDx=0;exitDy=0;entryX=0;entryY=0.5;entryDx=0;entryDy=0;" parent="WIyWlLk6GJQsqaUBKTNV-1" source="yrRRdTn7mloh2SaLwdPU-30" target="VparaJbnwcE0uKCTUJk4-14" edge="1">
          <mxGeometry width="100" height="100" relative="1" as="geometry">
            <mxPoint x="325" y="960" as="sourcePoint" />
            <mxPoint x="805" y="810" as="targetPoint" />
          </mxGeometry>
        </mxCell>
        <mxCell id="VparaJbnwcE0uKCTUJk4-18" style="edgeStyle=orthogonalEdgeStyle;rounded=0;orthogonalLoop=1;jettySize=auto;html=1;exitX=0.5;exitY=1;exitDx=0;exitDy=0;entryX=0.5;entryY=0;entryDx=0;entryDy=0;" parent="WIyWlLk6GJQsqaUBKTNV-1" source="VparaJbnwcE0uKCTUJk4-14" target="VparaJbnwcE0uKCTUJk4-17" edge="1">
          <mxGeometry relative="1" as="geometry" />
        </mxCell>
        <mxCell id="VparaJbnwcE0uKCTUJk4-14" value="have&lt;div&gt;&lt;br/&gt;&lt;/div&gt;" style="shape=rhombus;perimeter=rhombusPerimeter;whiteSpace=wrap;html=1;align=center;rotation=-30;" parent="WIyWlLk6GJQsqaUBKTNV-1" vertex="1">
          <mxGeometry x="480" y="780" width="120" height="60" as="geometry" />
        </mxCell>
        <mxCell id="VparaJbnwcE0uKCTUJk4-16" value="" style="edgeStyle=entityRelationEdgeStyle;fontSize=12;html=1;endArrow=ERmany;startArrow=ERmany;rounded=0;entryX=1;entryY=1;entryDx=0;entryDy=0;exitX=0.5;exitY=0;exitDx=0;exitDy=0;" parent="WIyWlLk6GJQsqaUBKTNV-1" source="VparaJbnwcE0uKCTUJk4-14" target="fqRmJWQtiJOdLbfQ_6kI-3" edge="1">
          <mxGeometry width="100" height="100" relative="1" as="geometry">
            <mxPoint x="390" y="740" as="sourcePoint" />
            <mxPoint x="490" y="640" as="targetPoint" />
          </mxGeometry>
        </mxCell>
        <mxCell id="VparaJbnwcE0uKCTUJk4-17" value="Student_Response" style="ellipse;whiteSpace=wrap;html=1;align=center;rotation=-30;" parent="WIyWlLk6GJQsqaUBKTNV-1" vertex="1">
          <mxGeometry x="535" y="860" width="100" height="40" as="geometry" />
        </mxCell>
      </root>
    </mxGraphModel>
  </diagram>
</mxfile>
